# File created by Blade
# Date/Time:  Thu Sep 25 19:04:16 2014
# Frame Rate: 120.000 fps
#------------------------------------------------------
:FULLY-SPECIFIED
:DEGREES
1847
root 7.135976 17.342994 -13.413000 71.402769 28.769155 17.863329
Spine 30.645838 32.440453 29.714812
Head -47.366354 64.126471 -35.113157
LeftShoulder -23.881179 27.226482 27.813725
LeftArm 2.293194 7.613333 -44.908468
LeftForeArm -27.478910 -0.000000 4.988304
LeftHand -41.755338 -0.000000 12.040738
LeftHandThumb1 -26.253704 0.000000 33.147579
RightShoulder 0.127702 30.457742 -34.360772
RightArm 2.549460 10.694566 76.572046
RightForeArm -72.292272 -0.000000 64.943872
RightHand -16.240185 -0.000000 -51.600861
RightHandThumb1 -24.326973 -0.000000 -32.862282
LeftUpLeg -143.295571 3.295390 -32.209739
LeftLeg 96.458062 -0.000000 -0.000000
LeftFoot -10.984351 -28.366229 -25.835996
LeftToeBase 9.263320 -0.000000 -0.000000
RightUpLeg -27.874757 -75.700467 -42.864286
RightLeg 2.091140 -0.000000 -0.000000
RightFoot 9.452141 -16.329760 21.509239
RightToeBase 10.752159 -0.000000 -0.000000
1848
root 7.143723 17.335724 -13.407813 71.427045 28.753811 18.034250
Spine 30.539320 32.540403 29.966744
Head -45.982440 64.282497 -34.073034
LeftShoulder -23.892610 27.044051 27.814784
LeftArm 2.616031 6.497682 -44.725679
LeftForeArm -27.918193 -0.000000 4.992864
LeftHand -41.782806 0.000000 12.459754
LeftHandThumb1 -26.253704 0.000000 33.147579
RightShoulder 0.064775 30.382882 -34.455708
RightArm 2.338583 10.640902 76.494698
RightForeArm -72.342877 -0.000000 64.812721
RightHand -16.235259 -0.000000 -51.655064
RightHandThumb1 -24.326973 -0.000000 -32.862282
LeftUpLeg -143.168745 3.217410 -32.269238
LeftLeg 96.483506 -0.000000 -0.000000
LeftFoot -11.005254 -28.377908 -25.700137
LeftToeBase 9.426540 -0.000000 -0.000000
RightUpLeg -27.542665 -75.912891 -43.243407
RightLeg 2.112313 -0.000000 -0.000000
RightFoot 9.513341 -16.168244 21.252630
RightToeBase 10.793047 -0.000000 -0.000000
1849
root 7.154596 17.329268 -13.399355 71.412928 28.759543 18.213107
Spine 30.436606 32.607480 30.307211
Head -44.559419 64.260843 -33.020206
LeftShoulder -23.786240 26.854788 27.838794
LeftArm 2.894366 5.322358 -44.579526
LeftForeArm -28.182750 -0.000000 5.028025
LeftHand -41.686556 -0.000000 12.940363
LeftHandThumb1 -26.253704 0.000000 33.147579
RightShoulder 0.110781 30.305370 -34.522140
RightArm 2.064415 10.521458 76.289484
RightForeArm -72.289416 -0.000000 64.636821
RightHand -16.227625 0.000000 -51.833926
RightHandThumb1 -24.326973 -0.000000 -32.862282
LeftUpLeg -143.000654 3.150774 -32.336344
LeftLeg 96.508664 -0.000000 -0.000000
LeftFoot -10.977575 -28.415637 -25.784524
LeftToeBase 8.884865 -0.000000 -0.000000
RightUpLeg -27.053499 -76.090651 -43.742973
RightLeg 2.118720 -0.000000 -0.000000
RightFoot 9.554294 -16.084714 20.879833
RightToeBase 10.981932 -0.000000 -0.000000
1850
root 7.167356 17.324351 -13.388727 71.397642 28.756305 18.416779
Spine 30.351968 32.695556 30.607393
Head -43.336847 64.302365 -32.045222
LeftShoulder -23.745103 26.609766 27.887047
LeftArm 3.227360 4.157640 -44.415938
LeftForeArm -28.358056 -0.000000 5.150849
LeftHand -41.614617 -0.000000 13.530879
LeftHandThumb1 -26.253704 0.000000 33.147579
RightShoulder 0.168631 30.126668 -34.536055
RightArm 1.853766 10.452795 76.037265
RightForeArm -72.225071 -0.000000 64.482966
RightHand -16.195095 -0.000000 -51.993766
RightHandThumb1 -24.326973 -0.000000 -32.862282
LeftUpLeg -142.797314 3.071794 -32.451373
LeftLeg 96.531903 -0.000000 -0.000000
LeftFoot -10.994900 -28.427759 -25.701564
LeftToeBase 8.794631 -0.000000 -0.000000
RightUpLeg -26.376585 -76.249912 -44.454238
RightLeg 2.147971 -0.000000 -0.000000
RightFoot 9.604760 -15.977464 20.544391
RightToeBase 11.051925 -0.000000 -0.000000
1851
root 7.179554 17.322083 -13.380071 71.420492 28.726715 18.611594
Spine 30.169512 32.750139 30.793065
Head -42.077667 64.452918 -31.024683
LeftShoulder -23.807261 26.450747 27.859245
LeftArm 3.632127 3.065789 -44.192722
LeftForeArm -28.358443 -0.000000 5.296099
LeftHand -41.491537 -0.000000 14.164035
LeftHandThumb1 -26.253704 0.000000 33.147579
RightShoulder 0.235322 29.983039 -34.497651
RightArm 1.748544 10.303186 75.824925
RightForeArm -72.124615 -0.000000 64.214621
RightHand -16.115764 -0.000000 -52.194192
RightHandThumb1 -24.326973 -0.000000 -32.862282
LeftUpLeg -142.631633 2.981134 -32.610449
LeftLeg 96.544302 -0.000000 -0.000000
LeftFoot -10.960541 -28.486472 -25.683210
LeftToeBase 8.852995 -0.000000 -0.000000
RightUpLeg -25.737935 -76.327585 -45.175011
RightLeg 2.206252 -0.000000 -0.000000
RightFoot 9.594638 -15.968051 20.211540
RightToeBase 11.251631 -0.000000 -0.000000
1852
root 7.191548 17.321974 -13.371587 71.433553 28.715531 18.798717
Spine 29.975200 32.850560 31.018010
Head -40.559212 64.625633 -29.704044
LeftShoulder -23.812620 26.331620 27.896225
LeftArm 4.106552 1.971829 -44.015100
LeftForeArm -28.071714 -0.000000 5.443940
LeftHand -41.295065 -0.000000 14.778935
LeftHandThumb1 -26.253704 0.000000 33.147579
RightShoulder 0.541710 30.507009 -34.487802
RightArm 0.703509 10.232220 75.463174
RightForeArm -71.981028 -0.000000 64.077284
RightHand -16.054029 0.000000 -52.211430
RightHandThumb1 -24.326973 -0.000000 -32.862282
LeftUpLeg -142.452915 2.898789 -32.762177
LeftLeg 96.543573 -0.000000 -0.000000
LeftFoot -10.914848 -28.573169 -25.667896
LeftToeBase 8.810343 -0.000000 -0.000000
RightUpLeg -25.051033 -76.379284 -45.920822
RightLeg 2.255499 -0.000000 -0.000000
RightFoot 9.603296 -15.985308 19.940663
RightToeBase 11.281780 -0.000000 -0.000000
1853
root 7.205126 17.323696 -13.360877 71.455961 28.715762 18.982758
Spine 29.758166 32.934817 31.248366
Head -39.039525 64.739261 -28.391521
LeftShoulder -23.774993 26.177804 27.894656
LeftArm 4.475245 0.880071 -43.790031
LeftForeArm -27.590419 0.000000 5.643529
LeftHand -41.194695 -0.000000 15.083342
LeftHandThumb1 -26.253704 0.000000 33.147579
RightShoulder 0.578102 30.427755 -34.424940
RightArm 0.546348 10.011488 75.220457
RightForeArm -71.864984 -0.000000 63.758793
RightHand -16.090627 0.000000 -52.357870
RightHandThumb1 -24.326973 -0.000000 -32.862282
LeftUpLeg -142.276938 2.805429 -32.920688
LeftLeg 96.546478 -0.000000 -0.000000
LeftFoot -10.903102 -28.649649 -25.591141
LeftToeBase 8.520328 -0.000000 -0.000000
RightUpLeg -24.365132 -76.424259 -46.657937
RightLeg 2.321571 -0.000000 -0.000000
RightFoot 9.594345 -16.023221 19.732632
RightToeBase 11.425136 -0.000000 -0.000000
